<svg id="Layer_1" enable-background="new 0 0 256 256" height="512" viewBox="0 0 256 256" width="512" xmlns="http://www.w3.org/2000/svg"><path d="m242 215.234h-228c-3.314 0-6-2.686-6-6v-195.351c0-3.314 2.686-6 6-6h228c3.314 0 6 2.686 6 6v195.351c0 3.314-2.686 6-6 6z" fill="#a4c9ff"/><path d="m9.649 64.016 5.555 1.711c.399.123.757.35 1.038.658l11.25 12.327c.393.431.611.993.611 1.576v10.593c0 .621.247 1.216.687 1.655l12.543 12.511c.238.237.523.42.838.537l15.59 5.779c.346.128.718.173 1.084.13l14.797-1.732c.53-.062 1.023-.304 1.397-.685l7.083-7.224c.699-.713.868-1.791.421-2.683l-3.02-6.028c-.396-.791-1.205-1.29-2.089-1.29h-9.981c-.549 0-1.08-.193-1.5-.545l-9.636-8.068c-.419-.351-.702-.837-.799-1.375l-2.071-11.435c-.161-.888.204-1.79.938-2.316l11.828-8.478c.258-.185.552-.316.862-.384l17.469-3.821c.527-.115.998-.409 1.333-.833l8.193-10.349c.185-.233.412-.429.67-.577l18.293-10.49c.196-.112.375-.252.53-.416l9.479-9.959c.414-.435.644-1.011.644-1.611v-7.479c0-.668.285-1.304.784-1.747 1.606-1.428.596-4.084-1.553-4.084h-108.917c-3.314 0-6 2.687-6 6v47.9c0 1.025.669 1.93 1.649 2.232z" fill="#6bdddd"/><path d="m242 7.883h-75l8.003 12.004c.645.967 1.604 1.682 2.715 2.024l9.518 2.929c1.139.35 2.117 1.092 2.762 2.095l6.845 10.647c.74 1.15 1.915 1.952 3.256 2.22l17.367 3.473c.355.071.701.18 1.033.325l4.476 1.958c1.837.804 3.024 2.619 3.024 4.625v4.09c0 .73-.159 1.452-.465 2.116l-2.127 4.608c-.27.585-.649 1.112-1.117 1.555l-6.383 6.028c-1.196 1.13-1.767 2.772-1.529 4.4l.148 1.014c.287 1.962 1.696 3.574 3.602 4.121l12.112 3.476c1.71.49 3.551.045 4.848-1.173l1.214-1.141c1.352-1.27 3.292-1.695 5.051-1.109 3.268 1.089 6.643-1.344 6.643-4.789v-59.496c.004-3.314-2.682-6-5.996-6z" fill="#6bdddd"/><path d="m242 217.234h-228c-4.411 0-8-3.589-8-8v-195.351c0-4.411 3.589-8 8-8h228c4.411 0 8 3.589 8 8v195.352c0 4.411-3.589 7.999-8 7.999zm-228-207.351c-2.206 0-4 1.794-4 4v195.352c0 2.206 1.794 4 4 4h228c2.206 0 4-1.794 4-4v-195.352c0-2.206-1.794-4-4-4z" fill="#3762cc"/><path d="m58.575 113.509c-.515 0-1.03-.092-1.512-.271l-15.587-5.778c-.586-.216-1.111-.552-1.556-.995l-12.543-12.513c-.81-.808-1.274-1.927-1.274-3.07v-10.593c0-.085-.031-.166-.088-.228l-11.25-12.327c-.041-.045-.093-.078-.151-.096l-5.554-1.71c-1.83-.564-3.06-2.23-3.06-4.145v-47.9c0-4.411 3.589-8 8-8h108.917c1.817 0 3.409 1.098 4.054 2.796.646 1.698.186 3.576-1.173 4.783-.072.063-.113.155-.113.252v7.479c0 1.119-.425 2.181-1.197 2.991l-9.478 9.959c-.292.306-.622.564-.984.772l-18.293 10.49c-.036.021-.069.049-.095.082l-8.194 10.35c-.618.783-1.497 1.332-2.474 1.546l-17.469 3.82c-.043.009-.088.029-.127.057l-11.825 8.478c-.105.075-.159.206-.135.333l2.07 11.436c.014.077.055.147.115.197l9.637 8.069c.061.051.138.079.216.079h9.981c1.651 0 3.137.917 3.877 2.394l3.021 6.027c.83 1.656.516 3.657-.781 4.98l-7.083 7.224c-.688.703-1.609 1.155-2.591 1.271l-14.799 1.731c-.166.02-.334.03-.502.03zm-44.575-103.626c-2.206 0-4 1.794-4 4v47.9c0 .146.098.279.237.322l5.556 1.711c.739.228 1.404.649 1.925 1.22l11.252 12.328c.731.802 1.134 1.84 1.134 2.925v10.593c0 .089.036.176.099.238l12.543 12.512c.034.034.074.06.118.076l15.592 5.78c.05.019.104.026.156.019l14.798-1.731c.075-.009.147-.044.2-.098l7.084-7.226c.101-.103.125-.259.061-.387l-3.021-6.027c-.058-.115-.173-.187-.301-.187h-9.981c-1.016 0-2.005-.359-2.785-1.013l-9.636-8.068c-.776-.649-1.303-1.557-1.483-2.553l-2.07-11.435c-.297-1.641.387-3.328 1.742-4.298l11.827-8.479c.483-.345 1.02-.584 1.597-.711l17.472-3.821c.076-.017.144-.059.191-.119l8.195-10.35c.342-.433.759-.793 1.239-1.069l18.296-10.491c.027-.016.055-.037.079-.063l9.477-9.957c.061-.063.093-.146.093-.232v-7.479c0-1.238.531-2.42 1.456-3.242.047-.042.173-.154.091-.371-.083-.218-.252-.218-.315-.218h-108.918z" fill="#3762cc"/><path d="m231.62 83.784c-.646 0-1.295-.088-1.929-.27l-12.112-3.476c-2.655-.763-4.63-3.021-5.03-5.754l-.148-1.016c-.333-2.271.466-4.567 2.135-6.144l6.382-6.027c.284-.269.511-.584.675-.938l2.126-4.608c.184-.398.281-.84.281-1.277v-4.09c0-1.211-.717-2.308-1.826-2.793l-4.477-1.958c-.199-.087-.409-.153-.625-.196l-17.366-3.474c-1.862-.373-3.519-1.502-4.546-3.099l-6.845-10.648c-.389-.604-.98-1.054-1.667-1.264l-9.52-2.93c-1.547-.477-2.893-1.48-3.791-2.825l-8.003-12.006c-.409-.613-.447-1.402-.099-2.053.348-.65 1.025-1.057 1.763-1.057h75c4.411 0 8 3.589 8 8v59.498c0 2.293-1.067 4.377-2.927 5.717-1.86 1.342-4.175 1.692-6.349.969-1.064-.354-2.232-.097-3.049.67l-1.214 1.141c-1.318 1.24-3.065 1.908-4.839 1.908zm-60.883-73.901 5.93 8.896c.388.582.971 1.016 1.641 1.223l9.517 2.929c1.587.487 2.957 1.525 3.856 2.925l6.844 10.647c.444.689 1.161 1.179 1.966 1.34l17.367 3.474c.5.101.985.253 1.445.455l4.474 1.957c2.565 1.122 4.223 3.656 4.223 6.457v4.09c0 1.013-.225 2.034-.649 2.953l-2.126 4.608c-.378.819-.903 1.55-1.56 2.171l-6.383 6.027c-.722.682-1.067 1.675-.923 2.656l.148 1.016c.173 1.182 1.027 2.158 2.175 2.487l12.112 3.476c1.027.298 2.149.024 2.927-.708l1.214-1.141c1.889-1.774 4.592-2.367 7.052-1.549.941.313 1.942.16 2.746-.419s1.267-1.481 1.267-2.472v-59.498c0-2.206-1.794-4-4-4z" fill="#3762cc"/><path d="m156.907 177.585h-39.312c-2.209 0-4-1.791-4-4s1.791-4 4-4h39.312c2.209 0 4 1.791 4 4s-1.791 4-4 4z" fill="#f9cfcf"/><path d="m73.047 119.862 12.37-8.044c.263-.171.558-.287.867-.342l16.889-2.991c.365-.065.741-.042 1.095.068l19.044 5.863c.448.138.845.408 1.138.774l5.849 7.316c.444.555 1.115.878 1.826.878h4.464c1.113 0 2.071.784 2.291 1.875l1.795 8.896c.031.152.046.307.046.462v6.921c0 .439-.124.869-.356 1.241l-6.253 9.984c-.074.118-.137.241-.188.37l-6.76 16.847c-.107.268-.263.513-.46.724l-5.151 5.522c-.198.212-.355.46-.462.729l-7.367 18.495c-.297.746-.956 1.287-1.746 1.433l-7.889 1.461c-.826.153-1.671-.149-2.212-.791l-8.465-10.036c-.474-.562-.656-1.314-.491-2.03l3.452-15.039c.085-.37.078-.756-.019-1.123l-3.995-15.044c-.22-.827-.874-1.468-1.705-1.671l-21.305-5.2c-.731-.179-1.332-.698-1.614-1.397l-2.28-5.656c-.27-.67-.215-1.427.149-2.051l2.436-4.176c.095-.163.21-.314.341-.449l4.609-4.753c.619-.639.822-1.574.524-2.412l-1.393-3.909c-.365-1.021.019-2.156.926-2.745z" fill="#6bdddd"/><path d="m103.664 200.382c-1.264 0-2.486-.555-3.317-1.54l-8.465-10.037c-.875-1.036-1.215-2.444-.912-3.767l3.452-15.039c.012-.054.011-.108-.002-.161l-3.996-15.045c-.032-.12-.126-.212-.247-.241l-21.304-5.199c-1.354-.331-2.473-1.3-2.994-2.592l-2.28-5.656c-.498-1.233-.395-2.658.277-3.808l2.436-4.177c.176-.302.388-.581.631-.832l4.611-4.755c.089-.093.119-.226.075-.347l-1.393-3.91c-.676-1.899.032-3.993 1.721-5.092l12.37-8.044c.492-.319 1.033-.532 1.608-.635l16.889-2.991c.676-.119 1.379-.076 2.034.127l19.043 5.862c.834.256 1.564.753 2.111 1.437l5.849 7.315c.064.081.161.127.263.127h4.464c2.057 0 3.844 1.463 4.251 3.479l1.795 8.896c.057.28.085.569.085.857v6.921c0 .814-.229 1.61-.661 2.302l-6.253 9.984-6.787 16.899c-.198.496-.485.948-.852 1.342l-5.154 5.523c-.027.029-.051.066-.066.105l-7.368 18.495c-.554 1.392-1.765 2.387-3.239 2.66l-7.89 1.461c-.261.052-.524.076-.785.076zm-.086-89.933c-.02 0-.039.001-.058.005l-16.888 2.991c-.045.008-.087.024-.126.05l-12.369 8.043c-.132.086-.187.249-.134.396l1.393 3.909c.559 1.565.187 3.28-.971 4.475l-4.61 4.753-2.485 4.241c-.052.09-.061.2-.022.295l2.28 5.657c.041.101.128.176.233.202l21.304 5.198c1.544.378 2.756 1.565 3.164 3.101l3.995 15.045c.18.678.192 1.398.035 2.083l-3.452 15.04c-.023.104.003.212.071.293l8.465 10.036c.078.092.2.137.318.113l7.89-1.461c.114-.021.208-.099.251-.206l7.368-18.496c.199-.5.487-.955.854-1.351l5.155-5.524c.027-.029.05-.065.065-.104l6.761-16.848c.097-.24.215-.473.352-.69l6.25-9.98c.033-.054.051-.115.051-.179v-6.921l-1.802-8.963c-.032-.156-.171-.271-.331-.271h-4.464c-1.325 0-2.56-.594-3.388-1.629l-5.848-7.315c-.042-.053-.1-.092-.163-.111l-19.045-5.863c-.031-.009-.065-.014-.099-.014zm-30.531 9.412h.01z" fill="#3762cc"/><path d="m248 104.883-12.214 9.196c-.189.142-.4.254-.623.332l-6.803 2.348c-.238.082-.488.124-.739.124h-2.819c-.806 0-1.551.428-1.957 1.124l-2.536 4.347c-.202.346-.309.74-.309 1.141v13.493c0 .261.045.52.133.766l3.001 8.353c.231.644.741 1.149 1.387 1.373l13.968 4.863c.64.223 1.147.72 1.381 1.356l3.583 9.724c.031.084.057.17.078.257l4.469 18.703z" fill="#6bdddd"/><path d="m176.053 46.651-6.25 3.75c-.527.316-.968.758-1.285 1.285l-2.905 4.842c-.689 1.148-.713 2.576-.062 3.746l1.385 2.493c.043.077.083.155.12.235l3.093 6.627c.231.496.351 1.037.351 1.584v9.415c0 1.112.494 2.166 1.348 2.878l2.024 1.687c1.488 1.24 3.677 1.141 5.047-.229l1.484-1.484c.702-.702 1.097-1.655 1.097-2.649v-5.951c0-1.512.909-2.876 2.305-3.458 2-.833 4.287.199 4.986 2.249l.83 2.436c.246.722.707 1.352 1.321 1.806l1.213.895c2.233 1.648 5.419.38 5.911-2.35l.829-4.606c.221-1.23-.185-2.49-1.085-3.358l-5.215-5.035c-.392-.379-.863-.667-1.378-.846l-6.821-2.358c-1.509-.522-2.522-1.943-2.522-3.54v-.583c0-.81.263-1.599.749-2.248l2.021-2.694c.833-1.111.984-2.593.39-3.848l-.808-1.71c-1.129-2.389-4.31-2.889-6.118-.963l-1.252 1.334c-.236.252-.506.47-.803.648z" fill="#6bdddd"/><path d="m247.998 184.383c-.914 0-1.726-.626-1.943-1.535l-4.469-18.702-3.592-9.755c-.028-.075-.086-.133-.162-.159l-13.968-4.862c-1.221-.425-2.173-1.367-2.611-2.585l-3.001-8.354c-.166-.461-.251-.946-.251-1.441v-13.493c0-.754.201-1.497.581-2.149l2.536-4.347c.762-1.306 2.173-2.116 3.685-2.116h2.819l6.89-2.362 12.287-9.235c.605-.457 1.417-.53 2.096-.192.679.339 1.107 1.032 1.107 1.79v77.5c0 1.014-.759 1.867-1.766 1.986-.081.006-.16.011-.238.011zm-23.197-65.5c-.094 0-.182.051-.229.132l-2.536 4.347c-.023.04-.036.087-.036.134v13.493l3.017 8.443c.027.075.086.134.162.16l13.969 4.862c1.208.42 2.156 1.352 2.6 2.554l3.583 9.725c.059.16.107.319.146.483l.523 2.191v-56.515l-9.011 6.784c-.358.27-.753.479-1.174.625l-6.803 2.348c-.449.155-.917.233-1.392.233h-2.819z" fill="#3762cc"/><path d="m176.272 88.071c-1.299 0-2.603-.443-3.68-1.342l-2.025-1.688c-1.313-1.095-2.067-2.704-2.067-4.414v-9.414c0-.253-.057-.509-.164-.738l-3.152-6.743-1.381-2.486c-.994-1.79-.958-3.992.096-5.748l2.905-4.842c.483-.805 1.165-1.486 1.971-1.97l6.25-3.75s.001-.001.001-.001c.137-.082.263-.184.374-.303l1.251-1.333c1.302-1.389 3.201-2.037 5.083-1.743 1.88.296 3.489 1.5 4.302 3.221l.808 1.709c.914 1.932.685 4.193-.598 5.903l-2.021 2.694c-.225.3-.349.672-.349 1.048v.583c0 .744.472 1.407 1.175 1.649l6.82 2.357c.798.277 1.509.713 2.114 1.297l5.215 5.036c1.383 1.334 2.005 3.261 1.664 5.151l-.829 4.606c-.354 1.967-1.674 3.582-3.532 4.321-1.857.738-3.927.47-5.535-.717l-1.212-.895c-.946-.698-1.647-1.655-2.027-2.77l-.83-2.436c-.158-.463-.49-.828-.935-1.029-.445-.199-.938-.208-1.388-.02-.654.272-1.075.904-1.075 1.611v5.951c0 1.534-.598 2.978-1.683 4.063l-1.484 1.483c-1.125 1.13-2.59 1.699-4.062 1.699zm.808-39.704-6.248 3.749c-.246.147-.453.354-.6.599l-2.905 4.842c-.32.533-.331 1.203-.029 1.747l1.385 2.492c.069.125.129.244.186.366l3.091 6.622c.353.756.539 1.597.539 2.43v9.414c0 .52.229 1.009.628 1.342l2.024 1.688c.697.581 1.708.535 2.352-.107l1.484-1.483c.33-.33.511-.769.511-1.235v-5.953c0-2.327 1.388-4.409 3.537-5.304 1.461-.609 3.127-.585 4.57.065 1.444.651 2.566 1.885 3.078 3.385l.83 2.436c.115.339.329.63.616.842l1.212.895c.705.519 1.411.326 1.682.218.271-.107.918-.451 1.073-1.313l.829-4.606c.104-.574-.085-1.159-.506-1.564l-5.215-5.036c-.184-.177-.401-.311-.644-.395l-6.819-2.356c-2.314-.8-3.869-2.982-3.869-5.431v-.583c0-1.235.408-2.46 1.149-3.448l2.021-2.694c.39-.52.459-1.206.182-1.794l-.808-1.709c-.251-.53-.728-.888-1.307-.979-.581-.09-1.143.103-1.544.529l-1.252 1.335c-.363.388-.779.723-1.233.994z" fill="#3762cc"/><path d="m232.871 22.951h-.24c-.188-3.801-3.33-6.825-7.177-6.825-.829 0-1.624.142-2.365.4-.917-3.188-3.854-5.521-7.337-5.521-4.217 0-7.636 3.419-7.636 7.636 0 .299.019.593.052.883-4.186.547-7.419 4.124-7.419 8.459 0 4.713 3.821 8.534 8.534 8.534h23.588c3.746 0 6.783-3.037 6.783-6.783 0-3.746-3.037-6.783-6.783-6.783z" fill="#4671c6"/><g fill="#ffea92"><path d="m219.346 46.969c-.247 0-.497-.068-.721-.21-.628-.399-.814-1.232-.415-1.86l4.393-6.913h-2.486c-.781 0-1.486-.432-1.841-1.128s-.29-1.52.169-2.152l5.52-7.603c.437-.602 1.28-.736 1.882-.299s.736 1.28.299 1.882l-4.795 6.605h2.397c.754 0 1.448.41 1.811 1.071s.337 1.467-.067 2.103l-5.007 7.879c-.257.404-.693.625-1.139.625z"/><path d="m230.586 51.143c-.198 0-.398-.054-.577-.168-.503-.319-.651-.986-.332-1.488l2.658-4.183h-1.248c-.584 0-1.111-.323-1.377-.843-.265-.52-.217-1.137.126-1.609l3.588-4.942c.35-.482 1.024-.589 1.506-.239s.589 1.024.239 1.506l-2.884 3.972h1.161c.564 0 1.083.307 1.354.801.272.494.252 1.097-.05 1.573l-3.254 5.122c-.204.322-.553.498-.91.498z"/><path d="m210.105 51.143c-.198 0-.398-.054-.577-.168-.503-.319-.651-.986-.332-1.488l2.658-4.183h-1.248c-.584 0-1.111-.323-1.377-.843-.265-.52-.217-1.137.126-1.609l3.588-4.942c.35-.482 1.024-.589 1.506-.239s.589 1.024.239 1.506l-2.884 3.972h1.161c.564 0 1.083.307 1.354.801.272.494.252 1.097-.05 1.573l-3.254 5.122c-.205.322-.554.498-.91.498z"/><circle cx="102.474" cy="27.082" r="8.533"/><path d="m102.474 17.075c-.443 0-.801-.359-.801-.801v-4.408c0-.443.359-.801.801-.801.443 0 .801.359.801.801v4.408c0 .442-.359.801-.801.801z"/><path d="m102.474 43.1c-.443 0-.801-.359-.801-.801v-4.409c0-.443.359-.801.801-.801.443 0 .801.359.801.801v4.408c0 .443-.359.802-.801.802z"/><path d="m112.481 27.082c0-.443.359-.801.801-.801h4.408c.443 0 .801.359.801.801 0 .443-.359.801-.801.801h-4.408c-.442 0-.801-.359-.801-.801z"/><path d="m86.456 27.082c0-.443.359-.801.801-.801h4.408c.443 0 .801.359.801.801 0 .443-.359.801-.801.801h-4.408c-.442 0-.801-.359-.801-.801z"/><path d="m109.55 34.158c.313-.313.82-.313 1.133 0l3.117 3.117c.313.313.313.82 0 1.133-.313.313-.82.313-1.133 0l-3.117-3.117c-.313-.313-.313-.82 0-1.133z"/><path d="m91.147 15.755c.313-.313.82-.313 1.133 0l3.117 3.117c.313.313.313.82 0 1.133-.313.313-.82.313-1.133 0l-3.117-3.117c-.313-.312-.313-.82 0-1.133z"/><path d="m95.398 34.158c.313.313.313.82 0 1.133l-3.117 3.117c-.313.313-.82.313-1.133 0-.313-.313-.313-.82 0-1.133l3.117-3.117c.312-.313.82-.313 1.133 0z"/><path d="m113.8 15.755c.313.313.313.82 0 1.133l-3.117 3.117c-.313.313-.82.313-1.133 0-.313-.313-.313-.82 0-1.133l3.117-3.117c.313-.313.82-.313 1.133 0z"/></g><path d="m104.865 35.206h-.202c-.158-3.194-2.798-5.735-6.032-5.735-.697 0-1.365.119-1.988.336-.771-2.679-3.238-4.639-6.165-4.639-3.544 0-6.417 2.873-6.417 6.417 0 .251.016.499.044.742-3.518.459-6.234 3.466-6.234 7.109 0 3.961 3.211 7.172 7.172 7.172h19.822c3.148 0 5.701-2.552 5.701-5.701 0-3.149-2.552-5.701-5.701-5.701z" fill="#e0ebfc"/><path d="m50.146 23.645h-.243c-.19-3.841-3.364-6.896-7.252-6.896-.838 0-1.641.144-2.39.404-.927-3.221-3.894-5.578-7.413-5.578-4.261 0-7.716 3.454-7.716 7.716 0 .302.019.6.053.893-4.23.552-7.496 4.167-7.496 8.548 0 4.763 3.861 8.623 8.623 8.623h23.834c3.786 0 6.854-3.069 6.854-6.854 0-3.787-3.069-6.856-6.854-6.856z" fill="#e0ebfc"/><path d="m24.817 54.964c-.301 0-.545-.244-.545-.545v-3.812c0-.301.244-.545.545-.545s.545.244.545.545v3.812c0 .301-.244.545-.545.545zm0-5.991c-.301 0-.545-.244-.545-.545v-3.812c0-.301.244-.545.545-.545s.545.244.545.545v3.812c0 .301-.244.545-.545.545zm0-5.991c-.301 0-.545-.244-.545-.545v-3.812c0-.301.244-.545.545-.545s.545.244.545.545v3.812c0 .301-.244.545-.545.545z" fill="#e0ebfc"/><path d="m29.175 54.964c-.301 0-.545-.244-.545-.545v-3.812c0-.301.244-.545.545-.545s.545.244.545.545v3.812c-.001.301-.245.545-.545.545zm0-5.991c-.301 0-.545-.244-.545-.545v-3.812c0-.301.244-.545.545-.545s.545.244.545.545v3.812c-.001.301-.245.545-.545.545zm0-5.991c-.301 0-.545-.244-.545-.545v-3.812c0-.301.244-.545.545-.545s.545.244.545.545v3.812c-.001.301-.245.545-.545.545z" fill="#e0ebfc"/><path d="m33.532 54.964c-.301 0-.545-.244-.545-.545v-3.812c0-.301.244-.545.545-.545s.545.244.545.545v3.812c-.001.301-.245.545-.545.545zm0-5.991c-.301 0-.545-.244-.545-.545v-3.812c0-.301.244-.545.545-.545s.545.244.545.545v3.812c-.001.301-.245.545-.545.545zm0-5.991c-.301 0-.545-.244-.545-.545v-3.812c0-.301.244-.545.545-.545s.545.244.545.545v3.812c-.001.301-.245.545-.545.545z" fill="#e0ebfc"/><path d="m37.889 54.964c-.301 0-.545-.244-.545-.545v-3.812c0-.301.244-.545.545-.545s.545.244.545.545v3.812c-.001.301-.245.545-.545.545zm0-5.991c-.301 0-.545-.244-.545-.545v-3.812c0-.301.244-.545.545-.545s.545.244.545.545v3.812c-.001.301-.245.545-.545.545zm0-5.991c-.301 0-.545-.244-.545-.545v-3.812c0-.301.244-.545.545-.545s.545.244.545.545v3.812c-.001.301-.245.545-.545.545z" fill="#e0ebfc"/><path d="m42.246 54.964c-.301 0-.545-.244-.545-.545v-3.812c0-.301.244-.545.545-.545s.545.244.545.545v3.812c-.001.301-.244.545-.545.545zm0-5.991c-.301 0-.545-.244-.545-.545v-3.812c0-.301.244-.545.545-.545s.545.244.545.545v3.812c-.001.301-.244.545-.545.545zm0-5.991c-.301 0-.545-.244-.545-.545v-3.812c0-.301.244-.545.545-.545s.545.244.545.545v3.812c-.001.301-.244.545-.545.545z" fill="#e0ebfc"/><path d="m46.603 54.964c-.301 0-.545-.244-.545-.545v-3.812c0-.301.244-.545.545-.545s.545.244.545.545v3.812c-.001.301-.244.545-.545.545zm0-5.991c-.301 0-.545-.244-.545-.545v-3.812c0-.301.244-.545.545-.545s.545.244.545.545v3.812c-.001.301-.244.545-.545.545zm0-5.991c-.301 0-.545-.244-.545-.545v-3.812c0-.301.244-.545.545-.545s.545.244.545.545v3.812c-.001.301-.244.545-.545.545z" fill="#e0ebfc"/><path d="m50.96 54.964c-.301 0-.545-.244-.545-.545v-3.812c0-.301.244-.545.545-.545s.545.244.545.545v3.812c-.001.301-.244.545-.545.545zm0-5.991c-.301 0-.545-.244-.545-.545v-3.812c0-.301.244-.545.545-.545s.545.244.545.545v3.812c-.001.301-.244.545-.545.545zm0-5.991c-.301 0-.545-.244-.545-.545v-3.812c0-.301.244-.545.545-.545s.545.244.545.545v3.812c-.001.301-.244.545-.545.545z" fill="#e0ebfc"/><circle cx="228.494" cy="120.901" fill="#ffea92" r="8.533"/><path d="m228.494 110.894c-.443 0-.801-.359-.801-.801v-4.408c0-.443.359-.801.801-.801.443 0 .801.359.801.801v4.408c0 .442-.359.801-.801.801z" fill="#ffea92"/><path d="m228.494 136.919c-.443 0-.801-.359-.801-.801v-4.408c0-.443.359-.801.801-.801.443 0 .801.359.801.801v4.408c0 .442-.359.801-.801.801z" fill="#ffea92"/><path d="m238.501 120.901c0-.443.359-.801.801-.801h4.408c.443 0 .801.359.801.801 0 .443-.359.801-.801.801h-4.408c-.442 0-.801-.358-.801-.801z" fill="#ffea92"/><path d="m212.476 120.901c0-.443.359-.801.801-.801h4.408c.443 0 .801.359.801.801 0 .443-.359.801-.801.801h-4.408c-.443 0-.801-.358-.801-.801z" fill="#ffea92"/><path d="m235.57 127.977c.313-.313.82-.313 1.133 0l3.117 3.117c.313.313.313.82 0 1.133-.313.313-.82.313-1.133 0l-3.117-3.117c-.313-.312-.313-.82 0-1.133z" fill="#ffea92"/><path d="m217.167 109.574c.313-.313.82-.313 1.133 0l3.117 3.117c.313.313.313.82 0 1.133-.313.313-.82.313-1.133 0l-3.117-3.117c-.313-.312-.313-.82 0-1.133z" fill="#ffea92"/><path d="m221.418 127.977c.313.313.313.82 0 1.133l-3.117 3.117c-.313.313-.82.313-1.133 0-.313-.313-.313-.82 0-1.133l3.117-3.117c.312-.313.82-.313 1.133 0z" fill="#ffea92"/><path d="m239.82 109.574c.313.313.313.82 0 1.133l-3.117 3.117c-.313.313-.82.313-1.133 0-.313-.313-.313-.82 0-1.133l3.117-3.117c.313-.313.82-.313 1.133 0z" fill="#ffea92"/><path d="m230.885 129.025h-.202c-.158-3.194-2.798-5.735-6.032-5.735-.697 0-1.365.119-1.988.336-.771-2.679-3.238-4.639-6.165-4.639-3.544 0-6.417 2.873-6.417 6.417 0 .251.016.499.044.742-3.518.459-6.234 3.466-6.234 7.109 0 3.961 3.211 7.172 7.172 7.172h19.822c3.148 0 5.701-2.552 5.701-5.701 0-3.149-2.552-5.701-5.701-5.701z" fill="#e0ebfc"/><path d="m184.031 61.907h-.243c-.19-3.841-3.364-6.896-7.252-6.896-.838 0-1.641.144-2.39.404-.927-3.221-3.894-5.578-7.413-5.578-4.261 0-7.716 3.454-7.716 7.716 0 .302.019.6.053.893-4.23.552-7.496 4.167-7.496 8.548 0 4.763 3.861 8.623 8.623 8.623h23.834c3.786 0 6.854-3.069 6.854-6.854.001-3.787-3.068-6.856-6.854-6.856z" fill="#e0ebfc"/><path d="m158.703 93.225c-.301 0-.545-.244-.545-.545v-3.812c0-.301.244-.545.545-.545s.545.244.545.545v3.812c0 .301-.244.545-.545.545zm0-5.991c-.301 0-.545-.244-.545-.545v-3.812c0-.301.244-.545.545-.545s.545.244.545.545v3.812c0 .301-.244.545-.545.545zm0-5.991c-.301 0-.545-.244-.545-.545v-3.812c0-.301.244-.545.545-.545s.545.244.545.545v3.812c0 .302-.244.545-.545.545z" fill="#e0ebfc"/><path d="m163.06 93.225c-.301 0-.545-.244-.545-.545v-3.812c0-.301.244-.545.545-.545s.545.244.545.545v3.812c0 .301-.244.545-.545.545zm0-5.991c-.301 0-.545-.244-.545-.545v-3.812c0-.301.244-.545.545-.545s.545.244.545.545v3.812c0 .301-.244.545-.545.545zm0-5.991c-.301 0-.545-.244-.545-.545v-3.812c0-.301.244-.545.545-.545s.545.244.545.545v3.812c0 .302-.244.545-.545.545z" fill="#e0ebfc"/><path d="m167.417 93.225c-.301 0-.545-.244-.545-.545v-3.812c0-.301.244-.545.545-.545s.545.244.545.545v3.812c0 .301-.244.545-.545.545zm0-5.991c-.301 0-.545-.244-.545-.545v-3.812c0-.301.244-.545.545-.545s.545.244.545.545v3.812c0 .301-.244.545-.545.545zm0-5.991c-.301 0-.545-.244-.545-.545v-3.812c0-.301.244-.545.545-.545s.545.244.545.545v3.812c0 .302-.244.545-.545.545z" fill="#e0ebfc"/><path d="m171.774 93.225c-.301 0-.545-.244-.545-.545v-3.812c0-.301.244-.545.545-.545s.545.244.545.545v3.812c0 .301-.244.545-.545.545zm0-5.991c-.301 0-.545-.244-.545-.545v-3.812c0-.301.244-.545.545-.545s.545.244.545.545v3.812c0 .301-.244.545-.545.545zm0-5.991c-.301 0-.545-.244-.545-.545v-3.812c0-.301.244-.545.545-.545s.545.244.545.545v3.812c0 .302-.244.545-.545.545z" fill="#e0ebfc"/><path d="m176.131 93.225c-.301 0-.545-.244-.545-.545v-3.812c0-.301.244-.545.545-.545s.545.244.545.545v3.812c0 .301-.244.545-.545.545zm0-5.991c-.301 0-.545-.244-.545-.545v-3.812c0-.301.244-.545.545-.545s.545.244.545.545v3.812c0 .301-.244.545-.545.545zm0-5.991c-.301 0-.545-.244-.545-.545v-3.812c0-.301.244-.545.545-.545s.545.244.545.545v3.812c0 .302-.244.545-.545.545z" fill="#e0ebfc"/><path d="m180.488 93.225c-.301 0-.545-.244-.545-.545v-3.812c0-.301.244-.545.545-.545s.545.244.545.545v3.812c0 .301-.244.545-.545.545zm0-5.991c-.301 0-.545-.244-.545-.545v-3.812c0-.301.244-.545.545-.545s.545.244.545.545v3.812c0 .301-.244.545-.545.545zm0-5.991c-.301 0-.545-.244-.545-.545v-3.812c0-.301.244-.545.545-.545s.545.244.545.545v3.812c0 .302-.244.545-.545.545z" fill="#e0ebfc"/><path d="m184.845 93.225c-.301 0-.545-.244-.545-.545v-3.812c0-.301.244-.545.545-.545s.545.244.545.545v3.812c0 .301-.244.545-.545.545zm0-5.991c-.301 0-.545-.244-.545-.545v-3.812c0-.301.244-.545.545-.545s.545.244.545.545v3.812c0 .301-.244.545-.545.545zm0-5.991c-.301 0-.545-.244-.545-.545v-3.812c0-.301.244-.545.545-.545s.545.244.545.545v3.812c0 .302-.244.545-.545.545z" fill="#e0ebfc"/><circle cx="149.412" cy="142.455" fill="#ffea92" r="8.533"/><path d="m149.412 132.448c-.443 0-.801-.359-.801-.801v-4.408c0-.443.359-.801.801-.801.443 0 .801.359.801.801v4.408c0 .442-.359.801-.801.801z" fill="#ffea92"/><path d="m149.412 158.473c-.443 0-.801-.359-.801-.801v-4.408c0-.443.359-.801.801-.801.443 0 .801.359.801.801v4.408c0 .442-.359.801-.801.801z" fill="#ffea92"/><path d="m159.419 142.455c0-.443.359-.801.801-.801h4.408c.443 0 .801.359.801.801 0 .443-.359.801-.801.801h-4.408c-.442 0-.801-.359-.801-.801z" fill="#ffea92"/><path d="m133.394 142.455c0-.443.359-.801.801-.801h4.408c.443 0 .801.359.801.801 0 .443-.359.801-.801.801h-4.408c-.443 0-.801-.359-.801-.801z" fill="#ffea92"/><path d="m156.488 149.531c.313-.313.82-.313 1.133 0l3.117 3.117c.313.313.313.82 0 1.133-.313.313-.82.313-1.133 0l-3.117-3.117c-.313-.313-.313-.82 0-1.133z" fill="#ffea92"/><path d="m138.085 131.128c.313-.313.82-.313 1.133 0l3.117 3.117c.313.313.313.82 0 1.133-.313.313-.82.313-1.133 0l-3.117-3.117c-.313-.312-.313-.82 0-1.133z" fill="#ffea92"/><path d="m142.335 149.531c.313.313.313.82 0 1.133l-3.117 3.117c-.313.313-.82.313-1.133 0-.313-.313-.313-.82 0-1.133l3.117-3.117c.313-.313.82-.313 1.133 0z" fill="#ffea92"/><path d="m160.738 131.128c.313.313.313.82 0 1.133l-3.117 3.117c-.313.313-.82.313-1.133 0-.313-.313-.313-.82 0-1.133l3.117-3.117c.313-.313.82-.313 1.133 0z" fill="#ffea92"/><path d="m151.803 150.579h-.202c-.158-3.194-2.798-5.735-6.032-5.735-.697 0-1.365.119-1.988.336-.771-2.679-3.238-4.639-6.165-4.639-3.544 0-6.417 2.873-6.417 6.417 0 .251.016.499.044.742-3.518.46-6.234 3.466-6.234 7.109 0 3.961 3.211 7.172 7.172 7.172h19.822c3.148 0 5.701-2.552 5.701-5.701 0-3.149-2.553-5.701-5.701-5.701z" fill="#e0ebfc"/><path d="m191.43 107.383h-39.313c-2.209 0-4-1.791-4-4s1.791-4 4-4h39.313c2.209 0 4 1.791 4 4s-1.791 4-4 4z" fill="#f9cfcf"/><path d="m239.895 156.144h-39.312c-2.209 0-4-1.791-4-4s1.791-4 4-4h39.312c2.209 0 4 1.791 4 4s-1.791 4-4 4z" fill="#f9cfcf"/><path d="m239.857 64.094h-39.312c-2.209 0-4-1.791-4-4s1.791-4 4-4h39.312c2.209 0 4 1.791 4 4s-1.791 4-4 4z" fill="#f9cfcf"/><path d="m57 69.1h-39.312c-2.209 0-4-1.791-4-4s1.791-4 4-4h39.312c2.209 0 4 1.791 4 4s-1.791 4-4 4z" fill="#f9cfcf"/><path d="m113.875 61.1h-39.312c-2.209 0-4-1.791-4-4s1.791-4 4-4h39.312c2.209 0 4 1.791 4 4s-1.792 4-4 4z" fill="#f9cfcf"/><path d="m136.463 156.736-9.75-42.441h-53.815-.545-53.815l-9.75 42.441c-.523 2.278-.788 4.623-.788 6.978 0 15.391 11.081 27.868 24.751 27.868h39.602.545 39.602c13.67 0 24.751-12.477 24.751-27.868 0-2.355-.265-4.7-.788-6.978z" fill="#4671c6"/><path d="m112.5 193.582h-79.75c-14.75 0-26.75-13.398-26.75-29.868 0-2.503.282-5.001.839-7.426l9.75-42.442c.208-.908 1.017-1.552 1.949-1.552h108.175c.932 0 1.741.644 1.949 1.552l9.75 42.441v.001c.557 2.425.839 4.923.839 7.426 0 16.47-12 29.868-26.751 29.868zm-92.369-77.288-9.393 40.89c-.49 2.131-.738 4.329-.738 6.53 0 14.264 10.206 25.868 22.751 25.868h79.75c12.545 0 22.751-11.604 22.751-25.868 0-2.201-.248-4.399-.738-6.531l-9.394-40.889z" fill="#3762cc"/><path d="m104.773 204.947h-7.777c-.017-.001-.033-.003-.05-.003l-.003.003h-51.159c-13.515 0-24.471 10.13-24.471 22.627v11.35 3.223 5.969h107.931v-5.969-3.223-11.35c0-12.496-10.956-22.627-24.471-22.627z" fill="#6bdddd"/><path d="m75.279 201.612c-7.261 0-14.114-1.728-20.164-4.789v2.986 6.171c0 .319.045.632.111.94.002 0 .004 0 .006-.001.066.308.165.607.29.894.017.038.032.076.05.113.055.118.116.232.182.344.065.109.135.214.209.318.04.056.075.115.117.169l2.864 3.641c2.853 3.626 6.808 6.253 11.285 7.301.601.141 1.224.262 1.869.359 7.271 1.09 14.543-2.006 19.063-7.838l4.175-5.387c.058-.289.096-.582.096-.879v-9.125c-6.048 3.058-12.897 4.783-20.153 4.783z" fill="#f9cfcf"/><path d="m119.997 140.822c-.095 0-.187.012-.281.014v-4.161c0-24.321-19.895-44.037-44.438-44.037-24.542 0-44.438 19.716-44.438 44.037v4.161c-.094-.002-.186-.014-.281-.014-7.487 0-13.557 6.015-13.557 13.435s6.07 13.435 13.557 13.435c.492 0 .976-.029 1.455-.08 4.586 19.482 22.208 33.999 43.264 33.999 21.056 0 38.678-14.517 43.264-33.999.478.051.963.08 1.455.08 7.487 0 13.557-6.015 13.557-13.435.001-7.42-6.069-13.435-13.557-13.435z" fill="#f9cfcf"/><path d="m53.196 161.247c-2.572 0-4.665-2.092-4.665-4.664v-7.774c0-2.572 2.093-4.665 4.665-4.665s4.664 2.093 4.664 4.665v7.774c.001 2.571-2.092 4.664-4.664 4.664z" fill="#3762cc"/><path d="m97.151 161.247c-2.572 0-4.665-2.092-4.665-4.664v-7.774c0-2.572 2.093-4.665 4.665-4.665s4.664 2.093 4.664 4.665v7.774c.001 2.571-2.092 4.664-4.664 4.664z" fill="#3762cc"/><path d="m75.278 203.612c-21.128 0-39.314-13.865-44.798-33.92-8.542-.043-15.478-6.951-15.478-15.436 0-7.934 6.066-14.489 13.838-15.341v-2.241c0-25.385 20.832-46.037 46.438-46.037s46.438 20.652 46.438 46.037v2.241c7.772.852 13.838 7.407 13.838 15.341 0 8.484-6.936 15.393-15.478 15.436-5.483 20.055-23.669 33.92-44.798 33.92zm-43.262-38c.918 0 1.731.631 1.945 1.542 4.498 19.11 21.488 32.458 41.317 32.458s36.819-13.348 41.317-32.458c.23-.98 1.155-1.623 2.158-1.531.437.047.844.069 1.244.069 6.373 0 11.558-5.13 11.558-11.436 0-6.299-5.174-11.425-11.539-11.435-.112.008-.185.012-.258.014-.533-.009-1.057-.195-1.441-.571s-.601-.891-.601-1.429v-4.161c0-23.18-19.038-42.037-42.438-42.037s-42.438 18.857-42.438 42.037v4.161c0 .538-.216 1.053-.601 1.429-.384.376-.91.559-1.441.571-.075-.002-.149-.006-.223-.012-.001 0-.003 0-.004 0-6.388 0-11.57 5.129-11.57 11.433 0 6.306 5.185 11.436 11.558 11.436.4 0 .807-.022 1.244-.069.072-.007.143-.011.213-.011z" fill="#3762cc"/><path d="m82.714 174.234h-5.4-4.07-5.4c-.811 0-1.468.657-1.468 1.468v3.67c0 1.356.58 2.675 1.65 3.754 1.282 1.292 3.164 2.128 5.226 2.364h4.056c2.061-.236 3.944-1.072 5.226-2.364 1.07-1.079 1.65-2.397 1.65-3.754v-3.67c-.002-.811-.659-1.468-1.47-1.468z" fill="#f9a7a7"/><path d="m77.307 186.989h-4.057c-.057 0-.114-.003-.17-.01-2.433-.277-4.606-1.271-6.121-2.797-1.344-1.355-2.084-3.063-2.084-4.811v-3.67c0-1.637 1.332-2.968 2.968-2.968h14.871c1.636 0 2.968 1.331 2.968 2.968v3.67c0 1.746-.74 3.454-2.084 4.81-1.515 1.526-3.688 2.521-6.121 2.798-.057.007-.114.01-.17.01zm-3.968-3h3.878c1.7-.21 3.246-.907 4.25-1.92.794-.801 1.214-1.733 1.214-2.697v-3.638h-14.838l.032 3.638c0 .964.42 1.896 1.214 2.697 1.005 1.013 2.55 1.71 4.25 1.92zm9.375-8.255h.01z" fill="#3762cc"/><circle cx="119.728" cy="164.416" fill="#e0ebfc" r="3.169"/><circle cx="30.513" cy="164.416" fill="#e0ebfc" r="3.169"/><path d="m116.911 207.929c-3.577-1.895-7.719-2.981-12.138-2.981h-7.777-.053-1.188l-18.368 13.656c-1.159.861-2.745.861-3.904 0l-18.368-13.656h-9.33c-4.303 0-8.345 1.03-11.858 2.834-2.092 1.074-2.519 3.892-.909 5.606 6.697 7.133 16.445 10.564 26.133 9.198l16.284-2.295 16.284 2.295c9.65 1.36 19.36-2.038 26.057-9.117 1.593-1.684 1.184-4.455-.865-5.54z" fill="#e0ebfc"/><path d="m129.244 250.117h-107.931c-1.104 0-2-.896-2-2v-20.543c0-13.579 11.875-24.627 26.471-24.627h7.33v-6.124c0-.694.361-1.34.953-1.704.591-.363 1.329-.395 1.95-.081 6 3.035 12.48 4.574 19.261 4.574 6.778 0 13.255-1.537 19.251-4.568.619-.313 1.358-.282 1.95.081.592.364.952 1.01.952 1.704v6.118h7.341c14.596 0 26.471 11.048 26.471 24.627v20.543c.001 1.105-.894 2-1.999 2zm-105.931-4h103.931v-18.543c0-11.374-10.081-20.627-22.471-20.627h-7.777c-.018 0-.035 0-.053 0h-1.511c-1.104 0-2-.896-2-2v-4.987c-5.73 2.425-11.823 3.652-18.153 3.652-6.333 0-12.429-1.229-18.164-3.657v4.992c0 1.104-.896 2-2 2h-9.33c-12.391 0-22.471 9.253-22.471 20.627v18.543z" fill="#3762cc"/><path d="m203.437 203.299c-2.822-1.129-6.032-.674-8.429 1.195l-7.941 6.192c-.442.345-.944.606-1.48.771l-19.527 5.988c-1.17.359-2.392-.384-2.612-1.588-.165-.903.291-1.805 1.117-2.207l5.101-2.485c2.89-1.407 4.415-4.632 3.671-7.758-.259-1.09-1.314-1.796-2.42-1.621l-13.258 2.093c-2.816.444-5.188 2.344-6.236 4.995l-7.24 18.308-14.938 20.935h26.99l5.404-9.328 19.674-10.386c1.538-.812 2.989-1.778 4.331-2.884l12.494-10.293c.722-.595 1.35-1.296 1.861-2.079l4.415-6.755c.723-1.108.252-2.602-.977-3.093z" fill="#f9cfcf"/><path d="m156.234 250.117h-26.99c-.749 0-1.435-.419-1.778-1.084-.343-.666-.285-1.468.15-2.078l14.796-20.735 7.149-18.081c1.303-3.294 4.286-5.684 7.785-6.235l13.258-2.094c2.13-.34 4.179 1.041 4.677 3.134.969 4.068-.981 8.188-4.741 10.02l-5.1 2.484 19.56-5.903c.304-.093.585-.239.837-.436l7.941-6.191c2.946-2.298 6.931-2.862 10.4-1.476 1.145.458 2.015 1.395 2.386 2.57.371 1.177.197 2.443-.478 3.476l-4.415 6.754c-.624.954-1.385 1.806-2.264 2.529l-12.494 10.293c-1.442 1.188-3.013 2.234-4.669 3.108l-19.165 10.117-5.116 8.831c-.356.617-1.016.997-1.729.997zm-23.106-4h21.953l4.826-8.331c.188-.325.464-.59.797-.766l19.674-10.386c1.416-.747 2.759-1.642 3.993-2.658l12.495-10.294c.566-.466 1.057-1.014 1.458-1.629l4.415-6.755c0-.001-.044-.143-.044-.143-2.155-.861-4.627-.513-6.456.915l-7.942 6.191c-.639.498-1.354.87-2.125 1.106l-19.525 5.987c-1.104.339-2.302.188-3.288-.411-.986-.6-1.67-1.595-1.877-2.729-.326-1.776.582-3.571 2.207-4.364l5.101-2.484c2.063-1.005 3.133-3.266 2.601-5.498-.018-.072-.085-.114-.162-.108l-13.258 2.094c-2.107.332-3.904 1.771-4.688 3.755l-7.239 18.309c-.06.151-.138.294-.232.427z" fill="#3762cc"/><path d="m87.051 76.216h-17.638c-3.657 0-6.856 1.929-8.66 4.816-1.385-2.848-4.297-4.816-7.677-4.816-19.922 0-36.073 16.15-36.073 36.073v23.51c0 2.627 2.13 4.757 4.757 4.757h16.652c11.516 0 21.067-8.391 22.887-19.391 4.447 11.35 15.488 19.391 28.414 19.391h30.917c3.455 0 6.256-2.801 6.256-6.256v-18.248c.001-22.001-17.834-39.836-39.835-39.836z" fill="#4671c6"/><path d="m120.63 142.556h-30.917c-11.645 0-22.103-6.058-27.902-15.805-3.746 9.41-12.875 15.805-23.399 15.805h-16.652c-3.726 0-6.757-3.031-6.757-6.757v-23.51c0-20.994 17.08-38.073 38.073-38.073 3.048 0 5.853 1.281 7.817 3.47 2.252-2.209 5.281-3.47 8.521-3.47h17.638c23.068 0 41.836 18.768 41.836 41.836v18.248c-.001 4.553-3.705 8.256-8.258 8.256zm-59.33-23.391c.815 0 1.559.498 1.861 1.271 4.313 11.008 14.735 18.12 26.552 18.12h30.917c2.347 0 4.256-1.909 4.256-4.256v-18.248c0-20.863-16.973-37.836-37.836-37.836h-17.637c-2.844 0-5.447 1.449-6.964 3.876-.385.618-1.082.979-1.802.938-.727-.038-1.375-.469-1.693-1.122-1.107-2.277-3.359-3.691-5.878-3.691-18.788 0-34.073 15.285-34.073 34.073v23.51c0 1.521 1.237 2.757 2.757 2.757h16.652c10.42 0 19.216-7.451 20.914-17.717.147-.889.869-1.568 1.764-1.663.071-.008.141-.012.21-.012z" fill="#3762cc"/><circle cx="75.279" cy="231.41" fill="#f9a7a7" r="6.472"/></svg>