<svg height="682pt" viewBox="-21 -21 682 682.66669" width="682pt" xmlns="http://www.w3.org/2000/svg"><path d="m407.832031 187.105469h30.910157l-19.160157 28.925781c-7.519531 11.355469.625 26.539062 14.25 26.539062 56.425781 0 52.8125-.179687 53.113281.316407.285157.480469 1.414063-2.007813-19.71875 37.832031-7.5 14.125 11.113282 27.390625 22.101563 16.097656l72.683594-74.808594c10.546875-10.851562 2.796875-29.015624-12.261719-29.015624h-48.539062l3.9375-5.886719h52.851562c16.703125 0 40.949219-17.335938 40.949219-44.523438 0-31.300781-31-51.820312-59.113281-42.070312-17.921876-48.671875-86.53125-50.261719-106.632813-2.445313-25.320313-.980468-45.09375 22.851563-39.671875 47.582032-17.339844 13.644531-7.609375 41.457031 14.300781 41.457031zm91.914063-25.9375c-2.320313 3.460937-22.351563 33.398437-24.105469 36.023437-4.210937 6.285156.328125 14.722656 7.855469 14.722656h61.9375l-44.691406 45.996094 2.925781-5.527344c6.910156-13.027343-2.53125-28.734374-17.28125-28.734374h-49.160157c56.125-84.710938 29.535157-44.582032 47.863282-72.234376 3.558594-5.414062 11.875-5.355468 15.097656.710938.746094 1.394531 2.207031 5.082031-.441406 9.042969zm-92.757813-1.449219c6.078125-1.203125 9.394531-7.851562 6.675781-13.425781-7.390624-15.128907 6.171876-33.148438 23.578126-28.621094 5.039062 1.355469 10.269531-1.675781 11.589843-6.8125 4.3125-17.03125 19.617188-28.925781 37.203125-28.925781 19.375 0 35.746094 14.480468 38.097656 33.667968.890626 7.175782 9.183594 10.785157 15.046876 6.445313 16.65625-12.417969 40.84375-.644531 40.84375 20.535156 0 16.894531-15.421876 25.597657-22.023438 25.597657h-40.542969c3.757813-7.871094 3.609375-17.117188-.582031-24.960938-9.898438-18.535156-36-19.726562-47.566406-2.261719l-18.027344 27.222657h-43.449219c-5.144531 0-5.855469-7.480469-.84375-8.460938zm0 0"/><path d="m392.582031 472.523438c-62.921875-48.992188-53.125-114.953126-54.082031-119.460938 13.804688-16.867188 15.171875-41.085938 2.652344-59.523438-.066406-4.359374-.023438-50.09375-.039063-98.324218 0-53.261719-42.03125-96.589844-93.699219-96.589844h-93.527343c-50.289063 0-92.222657 41.234375-93.667969 93.738281-.078125 2.980469-.023438 95.519531-.023438 95.667969-17.246093 19.007812-17.242187 47.964844 0 66.964844.035157 25.550781.136719 35.558594.136719 35.722656-6.253906 31.601562-24.320312 60.535156-51.628906 81.804688-11.695313 9.117187-11.167969 26.234374 1.042969 34.707031 6.789062 4.703125 16.527344 10.566406 29.292968 16.144531-12.875 22.632812-19.980468 48.59375-19.980468 75.75 0 22.5 18.183594 40.875 40.859375 40.875h278.648437c5.222656 0 9.460938-4.238281 9.460938-9.460938 0-5.222656-4.238282-9.460937-9.460938-9.460937h-17.859375v-52.226563c0-5.222656-4.230469-9.457031-9.457031-9.457031-5.222656 0-9.460938 4.234375-9.460938 9.457031v52.226563h-202.292968v-52.226563c0-5.222656-4.238282-9.457031-9.460938-9.457031-5.226562 0-9.464844 4.234375-9.464844 9.457031v52.226563c-15.527343-1.109375-26.464843 3.300781-36.171874-6.433594-4.148438-4.136719-6.417969-9.640625-6.417969-15.519531 0-47.53125 25.070312-92.988281 69.445312-117.421875l12.378907 19.203125c8.742187 13.5625 27.355468 16.09375 39.417968 5.738281l36.535156-31.351562c2.832032-2.433594 6.9375-2.433594 9.769532 0l36.535156 31.351562c12.132812 10.417969 30.730469 7.746094 39.417969-5.742187l12.410156-19.261719c41.03125 22.648437 69.414063 66.351563 69.414063 117.484375 0 3.394531-.746094 6.652344-2.21875 9.65625-3.121094 6.339844 1.582031 13.636719 8.476562 13.636719 3.503906 0 6.863281-1.945313 8.503906-5.300781 2.757813-5.628907 4.160156-11.683594 4.160156-17.992188 0-26.992188-6.9375-52.914062-19.996093-75.734375 12.78125-5.59375 22.507812-11.457031 29.308593-16.160156 12.214844-8.476563 12.734376-25.59375 1.042969-34.707031zm-310.867187-297.621094c8.628906-32.707032 37.894531-57.359375 72.171875-57.359375 98.925781.144531 94.710937-.320313 101.371093.429687 37.742188 4.101563 66.933594 37.375 66.933594 77.242188-.703125 71.382812 1.394532 74.644531-1.375 74.644531-8.78125 0-17.421875-2.960937-24.417968-8.492187-11.828126-9.277344-12.824219-19.769532-22.441407-39.144532-6.882812-15.363281-29.003906-14.664062-34.859375 1.136719-15.480468 41.722656-67.828125 70.640625-119.433594 52.132813-13.179687-4.667969-26.859374 5.117187-26.859374 18.914062v93.648438c0 7.535156-10.480469 9.515624-13.195313 2.511718-.761719-1.78125-.476563 10.128906-.503906-184.667968-.011719-11.542969-.480469-19.339844 2.609375-30.996094zm233.601562 173.464844v-53.683594c20.652344 11.871094 20.679688 41.796875 0 53.683594zm-211.058594 114.078124c-5.339843.894532-33.992187 17.316407-54.671874 44.875-12.890626-5.363281-22.515626-11.105468-29.054688-15.632812-1.683594-1.164062-1.867188-2.945312-.199219-4.234375 26.097657-20.3125 44.746094-46.882813 54.21875-76.300781 9.355469 4.664062 21.039063 3.257812 29.085938-4.375 12.589843 16.039062 29.742187 30.183594 47.460937 40.800781-20.429687 2.777344-42.957031 11.234375-46.839844 14.867187zm42.640626 29.839844c-3.449219 2.957032-8.722657 2.199219-11.191407-1.628906l-10.957031-17.003906c24.097656-9.113282 39.820312-8.113282 53.828125-8.558594zm51.617187-46.1875c-16.839844 0-64.828125-25.296875-86.785156-60.597656 0-96.265625-.019531-91.164062.023437-91.351562.585938-3.140626 7.132813 3.46875 30.3125 5.492187 51.703125 4.570313 98.675782-26.558594 114.691406-69.492187 8.460938 14.886718 11.449219 40.25 39.640626 53.269531v66.933593c0 49.9375-73.367188 95.746094-97.882813 95.746094zm67.054687 44.558594c-2.460937 3.820312-7.734374 4.59375-11.191406 1.628906l-31.671875-27.1875c3.933594.300782 26.277344-1.855468 53.828125 8.550782zm115.183594 1.03125c-6.550781 4.542969-16.1875 10.296875-29.109375 15.640625-24.6875-32.84375-62.121093-55.390625-104.984375-60.1875 28.753906-17.398437 57.355469-44.855469 66.03125-77.359375 2.371094-.636719 4.683594-1.441406 6.902344-2.414062.488281 46.375 22.78125 90.058593 61.359375 120.085937 1.667969 1.292969 1.480469 3.074219-.199219 4.234375zm0 0"/><path d="m268.371094 317.953125c0 7.027344-5.695313 12.71875-12.722656 12.71875-7.019532 0-12.714844-5.691406-12.714844-12.71875 0-7.019531 5.695312-12.714844 12.714844-12.714844 7.027343 0 12.722656 5.695313 12.722656 12.714844zm0 0"/><path d="m275.3125 299.585938c1.5625.980468 3.304688 1.449218 5.023438 1.449218 9.472656 0 13.058593-12.433594 5.046874-17.472656-17.609374-11.070312-45.660156-5.652344-48.800781-5-5.113281 1.070312-8.394531 6.082031-7.328125 11.199219 1.0625 5.113281 6.078125 8.398437 11.191406 7.328125 6.019532-1.253906 25.351563-3.492188 34.867188 2.496094zm0 0"/><path d="m158.351562 317.953125c0 7.027344-5.695312 12.71875-12.722656 12.71875-7.019531 0-12.714844-5.691406-12.714844-12.71875 0-7.019531 5.695313-12.714844 12.714844-12.714844 7.027344 0 12.722656 5.695313 12.722656 12.714844zm0 0"/><path d="m213.402344 511.425781c0 7.046875-5.710938 12.757813-12.761719 12.757813-7.046875 0-12.757813-5.710938-12.757813-12.757813 0-7.050781 5.710938-12.761719 12.757813-12.761719 7.050781 0 12.761719 5.710938 12.761719 12.761719zm0 0"/><path d="m213.402344 556.089844c0 7.050781-5.710938 12.761718-12.761719 12.761718-7.046875 0-12.757813-5.710937-12.757813-12.761718 0-7.046875 5.710938-12.761719 12.757813-12.761719 7.050781 0 12.761719 5.714844 12.761719 12.761719zm0 0"/><path d="m213.402344 600.761719c0 7.046875-5.710938 12.757812-12.761719 12.757812-7.046875 0-12.757813-5.710937-12.757813-12.757812 0-7.050781 5.710938-12.761719 12.757813-12.761719 7.050781 0 12.761719 5.710938 12.761719 12.761719zm0 0"/><path d="m214.632812 352.53125h-32.234374c-5.226563 0-9.464844 4.230469-9.464844 9.457031 0 5.230469 4.238281 9.460938 9.464844 9.460938h32.234374c5.226563 0 9.464844-4.230469 9.464844-9.460938 0-5.226562-4.238281-9.457031-9.464844-9.457031zm0 0"/><path d="m622.992188 0h-262.386719c-9.160157 0-16.617188 7.457031-16.617188 16.609375v21.867187c0 7.3125 4.757813 13.546876 11.355469 15.757813v176.464844c0 5.234375 4.238281 9.460937 9.460938 9.460937 5.226562 0 9.464843-4.226562 9.464843-9.460937v-175.613281h235.046875v144.382812c0 5.21875 4.238282 9.457031 9.464844 9.457031 5.234375 0 9.460938-4.238281 9.460938-9.457031v-145.234375c6.597656-2.199219 11.351562-8.429687 11.351562-15.757813v-21.867187c0-9.152344-7.445312-16.609375-16.601562-16.609375zm-2.324219 36.167969c-12.132813 0-244.992188 0-257.757813 0v-17.246094h257.757813zm0 0"/><path d="m618.78125 227.847656c-5.226562 0-9.464844 4.226563-9.464844 9.460938v62.59375c0 4.847656-3.921875 8.785156-8.765625 8.785156h-217.519531c-4.828125 0-8.761719-3.9375-8.761719-8.785156v-31.355469c0-5.226563-4.238281-9.464844-9.464843-9.464844-5.222657 0-9.460938 4.238281-9.460938 9.464844v31.355469c0 15.277344 12.425781 27.707031 27.6875 27.707031h217.519531c15.273438 0 27.691407-12.429687 27.691407-27.707031v-62.59375c0-5.234375-4.226563-9.460938-9.460938-9.460938zm0 0"/></svg>